<?xml version="1.0" encoding="UTF-8"?>
<svg width="182px" height="176px" viewBox="0 0 182 176" version="1.1" xmlns="http://www.w3.org/2000/svg" xmlns:xlink="http://www.w3.org/1999/xlink">
    <title>Nplus-logo-final-color</title>
    <defs>
        <linearGradient x1="100%" y1="4.02445521%" x2="0%" y2="84.6430896%" id="linearGradient-1">
            <stop stop-color="#F88702" offset="0%"></stop>
            <stop stop-color="#E34D4C" offset="49.5847902%"></stop>
            <stop stop-color="#6729F1" offset="100%"></stop>
        </linearGradient>
    </defs>
    <g id="Nplus-logo-final-color" stroke="none" stroke-width="1" fill="none" fill-rule="evenodd">
        <path d="M108.914877,30 L108.914559,34.0011137 L40.6100611,34.0010509 C36.0547666,34.0010509 32.3456973,37.4488887 32.2073541,41.7518716 L32.2033537,42.0010509 L32.2033537,136.001051 C32.2033537,140.335965 35.8264741,143.865594 40.3482139,143.997244 L40.6100611,144.001051 L139.388873,144.001051 C143.944168,144.001051 147.653237,140.553213 147.79158,136.25023 L147.795581,136.001051 L147.795525,71.4243991 C148.459779,71.6196792 149.165615,71.7248258 149.897258,71.7248258 L150.166424,71.7197002 C150.804029,71.6931768 151.418522,71.5889899 152,71.4170665 L152,136.001051 C152,142.526508 146.525596,147.835444 139.709353,147.997251 L139.388873,148.001051 L40.6100611,148.001051 C33.7528604,148.001051 28.1740265,142.792507 28.003993,136.306026 L28,136.001051 L28,42.0010509 C28,35.4755942 33.4733386,30.1666581 40.2895819,30.0048508 L40.6100611,30 L108.914877,30 Z M82.1470063,57 C84.5353158,57 86.6961985,58.4164564 87.6489323,60.6065068 L100.864,90.984 L107.314438,61.7089348 C107.920427,58.9586782 110.357661,57 113.173888,57 L120.277674,57 C123.591382,57 126.277674,59.6862915 126.277674,63 C126.277674,63.43427 126.230527,63.8672565 126.137061,64.2913492 L114.669739,116.323349 C114.06364,119.07347 111.626469,121.032 108.810352,121.032 L98.9368782,121.032 C96.5506593,121.032 94.3912517,119.617992 93.4372521,117.430773 L79.264,84.936 L72.4216973,116.310461 C71.8205942,119.066739 69.3805465,121.032 66.5594847,121.032 L59.4663261,121.032 C56.1526176,121.032 53.4663261,118.345708 53.4663261,115.032 C53.4663261,114.59773 53.5134733,114.164743 53.606939,113.740651 L65.0742614,61.7086508 C65.68036,58.95853 68.1175305,57 70.9336485,57 L82.1470063,57 Z M150,8 C153.676952,8 156.672518,10.9173389 156.798324,14.5636604 L156.802438,14.802475 L156.802333,24.3586652 C156.802329,24.7862404 157.12228,25.1390897 157.535828,25.1908481 L157.641034,25.197384 L167.197563,25.1974884 C170.954457,25.1975295 174,28.2431056 174,32 C174,35.5687679 171.248643,38.5067494 167.65976,38.7838904 L167.419281,38.7984022 L167.197488,38.8024376 L157.640824,38.8023332 C157.228861,38.8023124 156.881781,39.1017118 156.81552,39.4496305 L156.804574,39.5455318 L156.802333,39.6409589 L156.802438,49.197488 C156.802477,52.766256 154.051152,55.7042675 150.462271,55.9814477 L150.221793,55.9959622 L150,56 C146.32304,56 143.32745,53.082676 143.201605,49.436376 L143.197488,49.1975628 L143.197384,39.6410337 C143.197379,39.2134584 142.87742,38.8606162 142.463871,38.8088668 L142.358665,38.8023332 L132.802512,38.8024376 C129.045603,38.8024787 126,35.7569253 126,32 C126,28.3230396 128.917324,25.3274505 132.563624,25.2016047 L132.802437,25.1974884 L142.358455,25.197384 C142.786119,25.1973624 143.139057,24.8773247 143.190843,24.4637907 L143.197384,24.3585904 L143.197488,14.8024372 C143.197529,11.0455429 146.243106,8 150,8 Z M150,12 C148.509552,12 147.29085,13.1634883 147.202605,14.6317611 L147.197488,14.8024809 L147.197384,24.3587133 C147.197253,26.9587354 145.146445,29.0797826 142.574113,29.192659 L142.358578,29.197384 L132.802481,29.1974884 C131.254708,29.1975054 130,30.4522276 130,32 C130,33.4904399 131.16349,34.7091125 132.63175,34.7973249 L132.802468,34.8024376 L142.358621,34.8023332 C144.958741,34.8023048 147.079883,36.8531274 147.192667,39.4254549 L147.197384,39.64099 L147.197488,49.1975191 C147.197505,50.6879666 148.361006,51.9066566 149.79355,51.9952429 L149.959987,52.0004003 L150.094437,51.9982706 C151.559286,51.9342373 152.710832,50.7931388 152.797231,49.3696545 L152.802438,49.1975318 L152.802713,39.6020015 L152.806324,39.4325244 C152.899079,36.9283017 154.924919,34.9199137 157.419644,34.807313 L157.640946,34.8023332 L167.157519,34.8028375 L167.291968,34.8007092 C168.815413,34.7341313 170,33.5025959 170,32 C170,30.5095525 168.836512,29.2908497 167.368239,29.2026049 L167.197519,29.1974884 L157.64099,29.197384 C155.04087,29.1973556 152.919773,27.1464866 152.807045,24.5741566 L152.802333,24.3586214 L152.802438,14.8024531 C152.802438,13.2546955 151.547745,12 150,12 Z" id="Shape" fill="url(#linearGradient-1)" fill-rule="nonzero"></path>
    </g>
</svg>